<?xml version="1.0" standalone="no"?>
<!DOCTYPE svg PUBLIC "-//W3C//DTD SVG 20010904//EN"
 "http://www.w3.org/TR/2001/REC-SVG-20010904/DTD/svg10.dtd">
<svg version="1.0" xmlns="http://www.w3.org/2000/svg"
 width="960.000000pt" height="960.000000pt" viewBox="0 0 960.000000 960.000000"
 preserveAspectRatio="xMidYMid meet">
<metadata>
Created by potrace 1.11, written by Peter Selinger 2001-2013
</metadata>
<g transform="translate(0.000000,960.000000) scale(0.100000,-0.100000)"
fill="#000000" stroke="none">
<path d="M5270 8949 c0 -5 15 -16 34 -24 19 -8 37 -19 40 -24 3 -5 -33 -15
-81 -22 -76 -11 -201 -6 -299 12 -31 5 -64 -3 -64 -16 0 -22 33 -35 92 -35 35
0 48 -3 39 -9 -15 -9 -114 -17 -341 -26 -120 -5 -180 -16 -208 -38 -12 -10
-146 -2 -179 10 -13 5 -14 3 -4 -15 7 -12 18 -22 25 -22 8 0 16 -7 20 -15 3
-10 -1 -15 -14 -15 -23 0 -37 -19 -21 -29 7 -4 -34 -32 -96 -66 -60 -32 -139
-79 -178 -105 -38 -25 -91 -58 -117 -74 -27 -15 -48 -30 -48 -35 0 -4 -12 -13
-26 -19 -14 -7 -23 -8 -19 -2 16 26 -21 5 -63 -36 -26 -25 -41 -43 -33 -39 9
5 12 3 9 -6 -3 -8 -11 -14 -19 -14 -8 0 -25 -12 -38 -27 -13 -16 -32 -28 -42
-28 -18 0 -22 -8 -20 -40 0 -11 -1 -12 -5 -2 -8 18 -54 -25 -54 -50 0 -10 -7
-18 -15 -18 -28 0 -65 -23 -65 -41 0 -10 -9 -19 -22 -21 -12 -2 -23 -10 -25
-18 -4 -13 -3 -13 6 0 9 13 11 13 11 -2 0 -9 -16 -30 -36 -45 -20 -15 -44 -36
-53 -45 -8 -10 -23 -18 -33 -18 -10 0 -18 -6 -18 -13 0 -13 -94 -101 -128
-121 -21 -12 -52 -39 -52 -46 0 -3 16 -6 35 -7 19 -1 42 -8 50 -17 9 -9 23
-16 31 -16 17 0 17 0 -1 -43 -8 -19 -27 -44 -43 -55 -22 -16 -35 -42 -59 -119
-18 -54 -37 -125 -43 -158 -6 -33 -13 -70 -16 -82 -2 -13 -17 -29 -33 -37 -45
-24 -52 -76 -10 -76 24 0 24 -8 -1 -40 -21 -27 -26 -50 -10 -50 12 0 3 -55
-16 -94 -17 -35 -18 -53 -3 -58 23 -8 4 -258 -20 -258 -5 0 -6 -291 -1 -440 1
-30 1 -91 1 -134 -1 -68 2 -82 20 -99 13 -13 19 -27 15 -41 -6 -25 6 -48 24
-44 7 2 19 -20 29 -57 10 -33 27 -76 39 -95 12 -20 22 -51 22 -72 0 -26 10
-51 31 -81 24 -35 32 -60 40 -123 42 -352 99 -491 236 -568 216 -123 826 -225
1014 -170 87 25 193 89 247 149 58 64 128 167 193 285 134 245 133 244 251
236 81 -6 191 -37 220 -63 22 -20 32 -54 53 -183 41 -260 72 -385 117 -474 27
-53 154 -178 203 -200 22 -9 49 -21 60 -26 120 -53 430 -121 642 -141 268 -25
392 13 500 154 57 74 142 215 169 280 23 56 59 103 69 88 8 -14 42 -14 51 0 3
6 0 15 -7 20 -11 6 -9 13 8 31 28 30 58 110 78 211 10 45 23 96 30 112 8 17
17 42 20 58 4 15 11 29 15 32 4 2 20 30 35 61 22 46 26 64 21 101 -5 37 -3 44
9 39 21 -7 34 22 27 63 -3 23 0 38 10 45 25 18 38 53 38 99 0 27 6 49 15 57 8
7 17 28 21 47 4 19 13 36 20 39 47 14 50 17 24 24 l-25 7 30 14 c49 22 44 -3
71 364 4 50 11 93 17 96 5 4 13 36 17 70 6 59 8 61 15 31 9 -39 20 -48 31 -24
9 20 12 77 13 222 l0 105 18 -31 c36 -61 42 -69 49 -62 4 4 -3 40 -14 80 -34
115 -64 258 -68 320 -1 31 -7 66 -13 77 -15 27 -14 41 4 41 23 0 18 18 -13 48
-16 15 -32 35 -35 45 -4 9 -10 16 -14 15 -11 -4 -63 37 -63 48 0 5 -11 22 -25
38 -14 16 -25 33 -25 39 0 5 -6 7 -14 4 -24 -9 -80 46 -73 72 3 11 1 24 -4 27
-14 8 -11 44 4 44 9 0 9 2 0 8 -7 5 -11 24 -8 50 3 30 0 45 -10 48 -8 3 -11
12 -9 19 3 7 -1 24 -10 37 -8 13 -17 52 -20 87 -3 43 -11 73 -25 92 -11 15
-23 40 -27 55 -17 74 -82 170 -101 151 -2 -3 9 -29 26 -59 28 -49 37 -98 19
-98 -12 0 -78 137 -78 161 0 12 -13 37 -30 56 -19 21 -30 28 -30 18 0 -22 -13
-19 -41 11 -13 14 -49 43 -80 64 -30 21 -89 78 -130 127 -40 48 -85 99 -98
113 -24 24 -24 24 -19 2 8 -30 -4 -28 -42 8 -18 17 -38 30 -45 30 -7 0 -18 7
-25 15 -7 8 -18 15 -25 15 -7 0 -28 20 -47 43 -77 101 -153 187 -156 177 -2
-5 10 -27 26 -48 63 -81 53 -85 -27 -12 -146 132 -179 152 -101 59 22 -26 40
-53 40 -60 0 -7 12 -25 27 -41 39 -40 23 -44 -18 -4 -40 40 -97 76 -120 76 -9
0 -44 27 -77 60 -64 65 -86 78 -51 30 31 -41 18 -48 -22 -12 -98 86 -119 104
-119 99 0 -2 7 -24 15 -47 23 -66 20 -78 -12 -48 -27 25 -33 26 -158 27 -71 1
-143 3 -160 5 -214 26 -298 41 -363 67 -84 33 -82 33 -82 18z m-1910 -1102 c0
-7 -13 -21 -30 -30 -38 -23 -40 -6 -2 22 32 24 32 24 32 8z m1014 -402 c13
-10 33 -12 67 -8 37 4 49 3 49 -8 0 -18 -50 -69 -69 -69 -17 -1 -57 -27 -50
-33 15 -14 70 -14 95 0 30 15 85 21 234 23 93 1 272 -30 277 -47 3 -7 -15 -21
-39 -33 -24 -11 -61 -30 -83 -42 -40 -21 -40 -21 -15 -30 16 -6 38 -6 60 1 88
25 180 33 232 21 34 -9 92 -11 170 -7 125 5 178 -3 323 -51 86 -28 153 -44
205 -48 43 -3 172 -20 234 -29 16 -3 35 -10 42 -16 16 -13 7 -39 -13 -39 -8 0
-13 -6 -10 -12 5 -16 47 -15 191 1 193 21 194 21 171 6 -85 -59 -73 -64 59
-25 77 23 115 30 134 24 15 -4 32 -8 37 -9 22 -2 121 -39 142 -53 20 -12 23
-12 29 1 8 22 62 11 93 -18 25 -24 52 -112 56 -183 2 -23 10 -75 18 -115 9
-39 15 -88 15 -107 0 -19 7 -63 17 -97 15 -56 16 -64 1 -90 -21 -38 -66 -132
-66 -138 0 -3 9 -5 20 -5 22 0 26 -20 8 -38 -9 -9 -9 -15 0 -24 9 -9 15 -9 24
0 21 21 38 -36 50 -162 13 -151 12 -223 -6 -286 -4 -14 -2 -47 3 -72 6 -26 14
-86 17 -133 l7 -87 -39 17 c-45 19 -54 21 -284 75 -149 35 -653 131 -967 184
-57 10 -138 15 -210 13 -135 -2 -170 -16 -212 -80 -24 -36 -26 -37 -85 -36
-34 0 -81 6 -105 12 -46 12 -49 17 -65 90 -13 57 -97 114 -226 152 -77 23
-163 41 -325 70 -77 13 -230 40 -340 59 -456 81 -692 104 -855 84 -24 -3 -25
-1 -25 52 0 43 6 63 26 90 14 19 32 51 39 70 7 19 17 40 21 45 4 6 11 35 15
65 5 38 14 60 32 77 15 14 23 30 19 42 -3 14 0 17 13 14 24 -6 70 74 70 121 0
27 7 42 29 61 26 23 29 34 34 103 3 49 13 95 27 127 12 28 31 68 41 90 23 52
48 84 136 175 124 129 131 139 126 158 -3 14 9 29 46 55 52 37 53 38 156 21
23 -3 27 -2 17 8 -7 7 -12 18 -12 25 0 19 148 17 174 -2z m3233 -627 c-3 -8
-6 -5 -6 6 -1 11 2 17 5 13 3 -3 4 -12 1 -19z m-87 -85 c-1 -38 -3 -44 -11
-30 -9 16 -4 77 7 77 2 0 4 -21 4 -47z m-63 -75 c-3 -7 -5 -2 -5 12 0 14 2 19
5 13 2 -7 2 -19 0 -25z m-3608 -739 c156 -12 402 -53 702 -118 239 -52 313
-78 362 -130 34 -37 37 -45 37 -99 0 -70 -25 -151 -90 -289 -105 -223 -247
-396 -378 -461 l-76 -37 -161 1 c-128 0 -190 6 -310 28 -390 70 -502 136 -567
335 -25 76 -34 280 -19 456 19 226 28 245 129 285 99 39 168 44 371 29z m-583
-33 c5 -13 -8 -98 -22 -148 -7 -23 -50 -24 -58 -1 -7 18 10 117 25 146 12 21
47 23 55 3z m84 -66 c-11 -30 -19 -66 -20 -79 0 -17 -3 -22 -10 -15 -15 15 -2
85 22 124 27 45 30 34 8 -30z m1713 -88 c28 -30 40 -75 38 -144 -1 -56 2 -71
19 -88 13 -13 16 -20 7 -20 -33 0 -52 41 -58 126 -4 65 -10 91 -27 114 -25 33
-8 44 21 12z m435 -94 c-18 -12 -41 -30 -51 -41 -9 -11 -20 -17 -24 -14 -15
15 81 92 100 80 5 -3 -6 -14 -25 -25z m516 -98 c247 -36 532 -86 596 -105 25
-7 79 -23 120 -35 172 -50 317 -136 356 -212 14 -27 14 -37 -1 -111 -17 -83
-92 -323 -121 -387 -62 -134 -82 -169 -123 -210 -26 -26 -73 -60 -106 -76 -54
-26 -72 -29 -179 -32 -95 -3 -150 2 -275 23 -343 59 -500 122 -591 236 -80
102 -150 324 -168 539 -21 238 2 334 88 378 61 31 144 29 404 -8z m1055 -220
c10 -5 33 -31 50 -58 38 -60 42 -134 11 -197 -14 -28 -19 -32 -16 -15 19 103
18 129 -4 175 -12 26 -34 60 -47 76 -26 30 -24 36 6 19z m214 -192 c-1 -54
-21 -101 -44 -106 -30 -6 -31 18 -4 136 4 17 12 22 28 20 19 -3 22 -9 20 -50z"/>
<path d="M4125 5761 c-29 -9 -61 -29 -54 -35 2 -3 18 1 33 9 33 18 81 21 56 5
-10 -7 -1 -8 30 -3 25 4 55 7 66 8 13 0 20 5 17 13 -5 13 -107 15 -148 3z"/>
<path d="M4303 5753 c9 -2 23 -2 30 0 6 3 -1 5 -18 5 -16 0 -22 -2 -12 -5z"/>
<path d="M4358 5743 c7 -3 16 -2 19 1 4 3 -2 6 -13 5 -11 0 -14 -3 -6 -6z"/>
<path d="M4005 5722 c-49 -28 -76 -49 -92 -72 -27 -39 -7 -31 39 15 26 26 58
48 77 51 17 4 31 10 31 15 0 13 -22 10 -55 -9z"/>
<path d="M4215 5720 c-4 -6 -12 -10 -18 -9 -14 2 -40 -6 -82 -27 -20 -10 -39
-33 -57 -73 -16 -32 -28 -63 -28 -70 0 -22 53 -95 62 -85 3 2 11 -9 18 -25 12
-29 38 -43 74 -37 24 3 34 26 13 26 -9 0 -17 -6 -20 -12 -3 -10 -7 -10 -20 1
-22 18 -23 45 -1 37 13 -5 14 -3 7 6 -16 20 -11 48 7 48 10 0 32 3 49 6 18 4
31 3 29 -2 -1 -5 3 -19 10 -30 6 -12 9 -24 5 -28 -3 -3 6 -18 21 -32 26 -26
27 -27 41 -8 12 18 14 18 20 2 6 -14 17 -17 68 -13 80 5 89 9 110 51 17 35 13
72 -5 40 -11 -20 -37 -20 -62 -1 -10 8 -23 12 -27 9 -11 -6 -84 31 -109 56
-40 40 -19 56 79 63 63 5 77 3 87 -11 7 -10 16 -13 21 -8 4 5 2 11 -5 13 -7 3
-24 22 -38 44 -15 24 -35 41 -52 45 -15 4 -33 11 -40 17 -18 14 -149 20 -157
7z m120 -270 c3 -5 1 -10 -4 -10 -6 0 -11 5 -11 10 0 6 2 10 4 10 3 0 8 -4 11
-10z"/>
<path d="M4428 5723 c7 -3 16 -2 19 1 4 3 -2 6 -13 5 -11 0 -14 -3 -6 -6z"/>
<path d="M4240 5400 c0 -5 5 -10 10 -10 6 0 10 5 10 10 0 6 -4 10 -10 10 -5 0
-10 -4 -10 -10z"/>
<path d="M6200 5417 c47 -11 87 -23 90 -26 3 -3 26 -16 51 -29 53 -25 126 -99
133 -134 3 -13 8 -40 11 -60 3 -21 12 -38 19 -38 15 0 7 82 -11 115 -16 29
-119 125 -134 125 -7 0 -20 7 -30 16 -22 19 -141 54 -184 53 -18 -1 5 -10 55
-22z"/>
<path d="M6054 5419 c-3 -6 -19 -9 -35 -5 -18 3 -29 1 -29 -5 0 -7 -9 -9 -21
-6 -16 4 -32 -5 -65 -40 -24 -25 -44 -49 -44 -53 0 -4 -7 -13 -15 -20 -11 -9
-13 -16 -5 -24 5 -5 10 -18 10 -27 0 -10 6 -20 13 -22 9 -4 8 -8 -3 -16 -8 -6
-10 -11 -5 -12 6 -1 15 -2 20 -4 6 -1 14 -3 19 -3 5 -1 3 -8 -3 -16 -9 -11 -6
-12 14 -8 14 2 22 8 19 14 -10 15 17 38 45 38 34 0 51 -17 51 -51 0 -21 7 -31
29 -40 17 -8 33 -24 36 -36 3 -14 13 -23 24 -23 11 0 21 -4 23 -9 3 -9 47 -14
96 -12 12 1 22 7 22 16 0 8 9 15 20 15 22 0 55 43 45 60 -3 5 -22 10 -41 10
-19 0 -34 5 -34 11 0 7 -11 8 -29 4 -29 -6 -51 8 -31 20 15 9 2 25 -21 25 -10
0 -19 5 -19 10 0 6 -7 10 -15 10 -21 0 -40 49 -25 64 16 16 100 16 107 0 2 -7
26 -16 51 -20 26 -4 50 -12 54 -18 5 -8 8 -7 8 2 0 7 -7 15 -16 19 -9 3 -14
15 -12 28 3 24 -17 55 -37 55 -7 0 -17 6 -23 13 -6 7 -23 14 -37 15 -14 1 -45
13 -69 27 -47 28 -61 30 -72 14z"/>
<path d="M5990 5108 c0 -4 9 -8 20 -8 11 0 20 4 20 9 0 6 -9 9 -20 8 -11 -1
-20 -5 -20 -9z"/>
<path d="M6040 5085 c0 -8 2 -15 4 -15 2 0 12 -3 21 -6 15 -6 15 -4 4 15 -16
25 -29 27 -29 6z"/>
<path d="M5181 2731 c-18 -12 -9 -61 28 -143 16 -35 31 -83 35 -108 7 -47 60
-184 83 -211 7 -9 13 -44 14 -85 2 -128 -39 -478 -72 -608 -51 -203 -79 -440
-79 -663 0 -127 -2 -147 -17 -159 -17 -11 -18 -43 -19 -383 l-2 -371 983 0
983 0 -31 88 c-16 48 -42 145 -57 217 -24 112 -49 200 -80 280 -4 11 -18 54
-30 95 -24 81 -84 247 -105 295 -22 46 -45 115 -59 172 -7 28 -27 80 -44 115
-18 35 -74 154 -126 264 -108 232 -209 391 -330 521 -83 89 -158 143 -284 206
-88 45 -132 74 -186 124 -125 118 -314 237 -529 336 -66 31 -58 29 -76 18z"/>
<path d="M4272 2671 c-51 -22 -111 -51 -132 -65 -70 -46 -179 -146 -232 -212
-28 -35 -58 -66 -67 -69 -9 -3 -41 -25 -71 -50 -30 -25 -112 -82 -182 -126
-141 -89 -248 -187 -340 -309 -69 -93 -203 -306 -213 -340 -4 -14 -14 -36 -22
-48 -8 -13 -12 -26 -9 -29 3 -3 -4 -17 -14 -31 -11 -13 -20 -29 -20 -33 0 -5
-16 -44 -36 -86 -19 -42 -45 -99 -56 -126 -12 -28 -43 -91 -70 -141 -48 -89
-89 -183 -133 -301 -13 -33 -42 -109 -65 -170 -23 -60 -51 -139 -62 -175 -11
-36 -29 -84 -39 -107 -23 -50 -44 -129 -54 -200 l-7 -53 1096 0 1096 0 0 38
c0 20 -6 100 -14 177 -21 192 -37 417 -46 620 -4 94 -10 184 -14 200 -3 17
-15 89 -27 160 -29 186 -67 384 -84 430 -17 50 -38 135 -61 245 -9 47 -28 126
-41 175 -14 50 -32 117 -41 150 -26 99 -21 178 18 260 18 39 43 84 56 102 29
38 52 119 39 132 -25 24 -63 20 -153 -18z"/>
</g>
</svg>
